<mxfile host="app.diagrams.net" modified="2022-07-23T22:27:52.793Z" agent="5.0 (Windows NT 10.0; Win64; x64) AppleWebKit/537.36 (KHTML, like Gecko) Chrome/103.0.0.0 Safari/537.36" etag="HiaVHc6cLwr8qzfHSXUH" version="20.2.0" type="github">
  <diagram id="7sQ4vhqjxr2qVbhrPKfx" name="updates">
    <mxGraphModel dx="1562" dy="728" grid="1" gridSize="10" guides="1" tooltips="1" connect="1" arrows="1" fold="1" page="1" pageScale="1" pageWidth="1600" pageHeight="900" math="0" shadow="0">
      <root>
        <mxCell id="0" />
        <mxCell id="1" parent="0" />
        <mxCell id="QJ8cubjyemCX2tT7OLT0-14" style="edgeStyle=orthogonalEdgeStyle;rounded=0;orthogonalLoop=1;jettySize=auto;html=1;exitX=1;exitY=0.5;exitDx=0;exitDy=0;entryX=0;entryY=0.5;entryDx=0;entryDy=0;" parent="1" source="QJ8cubjyemCX2tT7OLT0-1" target="QJ8cubjyemCX2tT7OLT0-10" edge="1">
          <mxGeometry relative="1" as="geometry" />
        </mxCell>
        <mxCell id="QJ8cubjyemCX2tT7OLT0-39" style="edgeStyle=orthogonalEdgeStyle;rounded=0;orthogonalLoop=1;jettySize=auto;html=1;exitX=1;exitY=0.25;exitDx=0;exitDy=0;entryX=0;entryY=0.5;entryDx=0;entryDy=0;" parent="1" source="QJ8cubjyemCX2tT7OLT0-1" target="QJ8cubjyemCX2tT7OLT0-6" edge="1">
          <mxGeometry relative="1" as="geometry" />
        </mxCell>
        <mxCell id="QJ8cubjyemCX2tT7OLT0-40" style="edgeStyle=orthogonalEdgeStyle;rounded=0;orthogonalLoop=1;jettySize=auto;html=1;exitX=1;exitY=0.75;exitDx=0;exitDy=0;entryX=0;entryY=0.5;entryDx=0;entryDy=0;" parent="1" source="QJ8cubjyemCX2tT7OLT0-1" target="QJ8cubjyemCX2tT7OLT0-15" edge="1">
          <mxGeometry relative="1" as="geometry" />
        </mxCell>
        <mxCell id="QJ8cubjyemCX2tT7OLT0-1" value="1.2 Core" style="rounded=0;whiteSpace=wrap;html=1;" parent="1" vertex="1">
          <mxGeometry x="40" y="240" width="160" height="80" as="geometry" />
        </mxCell>
        <mxCell id="QJ8cubjyemCX2tT7OLT0-2" value="Skin Context Menu" style="rounded=1;whiteSpace=wrap;html=1;" parent="1" vertex="1">
          <mxGeometry x="40" y="320" width="160" height="40" as="geometry" />
        </mxCell>
        <mxCell id="QJ8cubjyemCX2tT7OLT0-3" value="Modifiers System" style="rounded=1;whiteSpace=wrap;html=1;" parent="1" vertex="1">
          <mxGeometry x="40" y="360" width="160" height="40" as="geometry" />
        </mxCell>
        <mxCell id="QJ8cubjyemCX2tT7OLT0-4" value="Gun Addition" style="rounded=1;whiteSpace=wrap;html=1;" parent="1" vertex="1">
          <mxGeometry x="280" y="160" width="160" height="40" as="geometry" />
        </mxCell>
        <mxCell id="QJ8cubjyemCX2tT7OLT0-5" value="Gun Rework" style="rounded=1;whiteSpace=wrap;html=1;" parent="1" vertex="1">
          <mxGeometry x="40" y="400" width="160" height="40" as="geometry" />
        </mxCell>
        <mxCell id="QJ8cubjyemCX2tT7OLT0-38" style="edgeStyle=orthogonalEdgeStyle;rounded=0;orthogonalLoop=1;jettySize=auto;html=1;exitX=1;exitY=0.5;exitDx=0;exitDy=0;entryX=0;entryY=0.5;entryDx=0;entryDy=0;" parent="1" source="QJ8cubjyemCX2tT7OLT0-6" target="QJ8cubjyemCX2tT7OLT0-36" edge="1">
          <mxGeometry relative="1" as="geometry" />
        </mxCell>
        <mxCell id="Y-KdZH5Vc4EOkk4MUzBx-15" style="edgeStyle=orthogonalEdgeStyle;rounded=0;orthogonalLoop=1;jettySize=auto;html=1;exitX=1;exitY=0.75;exitDx=0;exitDy=0;entryX=0;entryY=0.25;entryDx=0;entryDy=0;" edge="1" parent="1" source="QJ8cubjyemCX2tT7OLT0-6" target="Y-KdZH5Vc4EOkk4MUzBx-11">
          <mxGeometry relative="1" as="geometry" />
        </mxCell>
        <mxCell id="QJ8cubjyemCX2tT7OLT0-6" value="1.2 Weapons" style="rounded=0;whiteSpace=wrap;html=1;" parent="1" vertex="1">
          <mxGeometry x="280" y="40" width="160" height="80" as="geometry" />
        </mxCell>
        <mxCell id="QJ8cubjyemCX2tT7OLT0-9" value="Damage System" style="rounded=1;whiteSpace=wrap;html=1;" parent="1" vertex="1">
          <mxGeometry x="40" y="440" width="160" height="40" as="geometry" />
        </mxCell>
        <mxCell id="QJ8cubjyemCX2tT7OLT0-10" value="1.2 Visual" style="rounded=0;whiteSpace=wrap;html=1;" parent="1" vertex="1">
          <mxGeometry x="280" y="240" width="160" height="80" as="geometry" />
        </mxCell>
        <mxCell id="QJ8cubjyemCX2tT7OLT0-11" value="Gun Rework" style="rounded=1;whiteSpace=wrap;html=1;" parent="1" vertex="1">
          <mxGeometry x="280" y="120" width="160" height="40" as="geometry" />
        </mxCell>
        <mxCell id="QJ8cubjyemCX2tT7OLT0-12" value="Context Characteristics" style="rounded=1;whiteSpace=wrap;html=1;" parent="1" vertex="1">
          <mxGeometry x="280" y="320" width="160" height="40" as="geometry" />
        </mxCell>
        <mxCell id="QJ8cubjyemCX2tT7OLT0-13" value="Hints" style="rounded=1;whiteSpace=wrap;html=1;" parent="1" vertex="1">
          <mxGeometry x="280" y="360" width="160" height="40" as="geometry" />
        </mxCell>
        <mxCell id="QJ8cubjyemCX2tT7OLT0-23" style="edgeStyle=orthogonalEdgeStyle;rounded=0;orthogonalLoop=1;jettySize=auto;html=1;exitX=1;exitY=0.5;exitDx=0;exitDy=0;entryX=0;entryY=0.5;entryDx=0;entryDy=0;" parent="1" source="QJ8cubjyemCX2tT7OLT0-15" target="QJ8cubjyemCX2tT7OLT0-20" edge="1">
          <mxGeometry relative="1" as="geometry" />
        </mxCell>
        <mxCell id="QJ8cubjyemCX2tT7OLT0-42" style="edgeStyle=orthogonalEdgeStyle;rounded=0;orthogonalLoop=1;jettySize=auto;html=1;exitX=1;exitY=0.25;exitDx=0;exitDy=0;entryX=0;entryY=0.75;entryDx=0;entryDy=0;" parent="1" source="QJ8cubjyemCX2tT7OLT0-15" target="QJ8cubjyemCX2tT7OLT0-32" edge="1">
          <mxGeometry relative="1" as="geometry" />
        </mxCell>
        <mxCell id="QJ8cubjyemCX2tT7OLT0-15" value="1.2 HP" style="rounded=0;whiteSpace=wrap;html=1;" parent="1" vertex="1">
          <mxGeometry x="280" y="760" width="160" height="80" as="geometry" />
        </mxCell>
        <mxCell id="QJ8cubjyemCX2tT7OLT0-16" value="Sync" style="rounded=1;whiteSpace=wrap;html=1;" parent="1" vertex="1">
          <mxGeometry x="280" y="840" width="160" height="40" as="geometry" />
        </mxCell>
        <mxCell id="QJ8cubjyemCX2tT7OLT0-17" value="Damage Calc" style="rounded=1;whiteSpace=wrap;html=1;" parent="1" vertex="1">
          <mxGeometry x="280" y="880" width="160" height="40" as="geometry" />
        </mxCell>
        <mxCell id="QJ8cubjyemCX2tT7OLT0-18" value="Speed Effect" style="rounded=1;whiteSpace=wrap;html=1;" parent="1" vertex="1">
          <mxGeometry x="280" y="920" width="160" height="40" as="geometry" />
        </mxCell>
        <mxCell id="QJ8cubjyemCX2tT7OLT0-20" value="1.3 HP" style="rounded=0;whiteSpace=wrap;html=1;" parent="1" vertex="1">
          <mxGeometry x="520" y="760" width="160" height="80" as="geometry" />
        </mxCell>
        <mxCell id="QJ8cubjyemCX2tT7OLT0-21" value="Correct Collision" style="rounded=1;whiteSpace=wrap;html=1;" parent="1" vertex="1">
          <mxGeometry x="520" y="840" width="160" height="40" as="geometry" />
        </mxCell>
        <mxCell id="QJ8cubjyemCX2tT7OLT0-22" value="Failsafe" style="rounded=1;whiteSpace=wrap;html=1;" parent="1" vertex="1">
          <mxGeometry x="520" y="880" width="160" height="40" as="geometry" />
        </mxCell>
        <mxCell id="QJ8cubjyemCX2tT7OLT0-29" style="edgeStyle=orthogonalEdgeStyle;rounded=0;orthogonalLoop=1;jettySize=auto;html=1;exitX=1;exitY=0.5;exitDx=0;exitDy=0;entryX=0;entryY=0.5;entryDx=0;entryDy=0;" parent="1" source="QJ8cubjyemCX2tT7OLT0-24" target="QJ8cubjyemCX2tT7OLT0-28" edge="1">
          <mxGeometry relative="1" as="geometry" />
        </mxCell>
        <mxCell id="Y-KdZH5Vc4EOkk4MUzBx-16" style="edgeStyle=orthogonalEdgeStyle;rounded=0;orthogonalLoop=1;jettySize=auto;html=1;exitX=1;exitY=0.25;exitDx=0;exitDy=0;entryX=0;entryY=0.75;entryDx=0;entryDy=0;" edge="1" parent="1" source="QJ8cubjyemCX2tT7OLT0-24" target="Y-KdZH5Vc4EOkk4MUzBx-11">
          <mxGeometry relative="1" as="geometry" />
        </mxCell>
        <mxCell id="QJ8cubjyemCX2tT7OLT0-24" value="1.2 ADS" style="rounded=0;whiteSpace=wrap;html=1;" parent="1" vertex="1">
          <mxGeometry x="280" y="440" width="160" height="80" as="geometry" />
        </mxCell>
        <mxCell id="QJ8cubjyemCX2tT7OLT0-25" value="Sync" style="rounded=1;whiteSpace=wrap;html=1;" parent="1" vertex="1">
          <mxGeometry x="280" y="520" width="160" height="40" as="geometry" />
        </mxCell>
        <mxCell id="QJ8cubjyemCX2tT7OLT0-26" value="Customisation" style="rounded=1;whiteSpace=wrap;html=1;" parent="1" vertex="1">
          <mxGeometry x="520" y="920" width="160" height="40" as="geometry" />
        </mxCell>
        <mxCell id="QJ8cubjyemCX2tT7OLT0-27" value="Customisation" style="rounded=1;whiteSpace=wrap;html=1;" parent="1" vertex="1">
          <mxGeometry x="520" y="520" width="160" height="40" as="geometry" />
        </mxCell>
        <mxCell id="Y-KdZH5Vc4EOkk4MUzBx-3" style="edgeStyle=orthogonalEdgeStyle;rounded=0;orthogonalLoop=1;jettySize=auto;html=1;exitX=1;exitY=0.5;exitDx=0;exitDy=0;entryX=0;entryY=0.5;entryDx=0;entryDy=0;" edge="1" parent="1" source="QJ8cubjyemCX2tT7OLT0-28" target="Y-KdZH5Vc4EOkk4MUzBx-1">
          <mxGeometry relative="1" as="geometry" />
        </mxCell>
        <mxCell id="QJ8cubjyemCX2tT7OLT0-28" value="1.3 ADS" style="rounded=0;whiteSpace=wrap;html=1;" parent="1" vertex="1">
          <mxGeometry x="520" y="440" width="160" height="80" as="geometry" />
        </mxCell>
        <mxCell id="QJ8cubjyemCX2tT7OLT0-41" style="edgeStyle=orthogonalEdgeStyle;rounded=0;orthogonalLoop=1;jettySize=auto;html=1;exitX=1;exitY=0.5;exitDx=0;exitDy=0;entryX=0;entryY=0.5;entryDx=0;entryDy=0;" parent="1" source="QJ8cubjyemCX2tT7OLT0-30" target="QJ8cubjyemCX2tT7OLT0-32" edge="1">
          <mxGeometry relative="1" as="geometry" />
        </mxCell>
        <mxCell id="QJ8cubjyemCX2tT7OLT0-30" value="1.2 Stinger" style="rounded=0;whiteSpace=wrap;html=1;" parent="1" vertex="1">
          <mxGeometry x="280" y="600" width="160" height="80" as="geometry" />
        </mxCell>
        <mxCell id="QJ8cubjyemCX2tT7OLT0-31" value="Sync" style="rounded=1;whiteSpace=wrap;html=1;" parent="1" vertex="1">
          <mxGeometry x="280" y="680" width="160" height="40" as="geometry" />
        </mxCell>
        <mxCell id="Y-KdZH5Vc4EOkk4MUzBx-4" style="edgeStyle=orthogonalEdgeStyle;rounded=0;orthogonalLoop=1;jettySize=auto;html=1;exitX=1;exitY=0.5;exitDx=0;exitDy=0;entryX=0;entryY=0.75;entryDx=0;entryDy=0;" edge="1" parent="1" source="QJ8cubjyemCX2tT7OLT0-32" target="Y-KdZH5Vc4EOkk4MUzBx-1">
          <mxGeometry relative="1" as="geometry" />
        </mxCell>
        <mxCell id="QJ8cubjyemCX2tT7OLT0-32" value="1.3 Stinger" style="rounded=0;whiteSpace=wrap;html=1;" parent="1" vertex="1">
          <mxGeometry x="520" y="600" width="160" height="80" as="geometry" />
        </mxCell>
        <mxCell id="QJ8cubjyemCX2tT7OLT0-33" value="Damage" style="rounded=1;whiteSpace=wrap;html=1;" parent="1" vertex="1">
          <mxGeometry x="520" y="680" width="160" height="40" as="geometry" />
        </mxCell>
        <mxCell id="QJ8cubjyemCX2tT7OLT0-35" value="Gun Addition" style="rounded=1;whiteSpace=wrap;html=1;" parent="1" vertex="1">
          <mxGeometry x="520" y="160" width="160" height="40" as="geometry" />
        </mxCell>
        <mxCell id="Y-KdZH5Vc4EOkk4MUzBx-10" value="" style="edgeStyle=orthogonalEdgeStyle;rounded=0;orthogonalLoop=1;jettySize=auto;html=1;" edge="1" parent="1" source="QJ8cubjyemCX2tT7OLT0-36" target="Y-KdZH5Vc4EOkk4MUzBx-7">
          <mxGeometry relative="1" as="geometry" />
        </mxCell>
        <mxCell id="QJ8cubjyemCX2tT7OLT0-36" value="1.3 Weapons" style="rounded=0;whiteSpace=wrap;html=1;" parent="1" vertex="1">
          <mxGeometry x="520" y="40" width="160" height="80" as="geometry" />
        </mxCell>
        <mxCell id="QJ8cubjyemCX2tT7OLT0-37" value="Gun Rework" style="rounded=1;whiteSpace=wrap;html=1;" parent="1" vertex="1">
          <mxGeometry x="520" y="120" width="160" height="40" as="geometry" />
        </mxCell>
        <mxCell id="QJ8cubjyemCX2tT7OLT0-44" value="1.2" style="rounded=0;whiteSpace=wrap;html=1;" parent="1" vertex="1">
          <mxGeometry x="40" y="220" width="80" height="20" as="geometry" />
        </mxCell>
        <mxCell id="QJ8cubjyemCX2tT7OLT0-45" value="1.2.2" style="rounded=0;whiteSpace=wrap;html=1;" parent="1" vertex="1">
          <mxGeometry x="280" y="220" width="80" height="20" as="geometry" />
        </mxCell>
        <mxCell id="QJ8cubjyemCX2tT7OLT0-46" value="1.2.1" style="rounded=0;whiteSpace=wrap;html=1;" parent="1" vertex="1">
          <mxGeometry x="280" y="20" width="80" height="20" as="geometry" />
        </mxCell>
        <mxCell id="QJ8cubjyemCX2tT7OLT0-47" value="1.2.5" style="rounded=0;whiteSpace=wrap;html=1;" parent="1" vertex="1">
          <mxGeometry x="280" y="580" width="80" height="20" as="geometry" />
        </mxCell>
        <mxCell id="QJ8cubjyemCX2tT7OLT0-48" value="1.2.3" style="rounded=0;whiteSpace=wrap;html=1;" parent="1" vertex="1">
          <mxGeometry x="280" y="740" width="80" height="20" as="geometry" />
        </mxCell>
        <mxCell id="QJ8cubjyemCX2tT7OLT0-49" value="1.2.4" style="rounded=0;whiteSpace=wrap;html=1;" parent="1" vertex="1">
          <mxGeometry x="280" y="420" width="80" height="20" as="geometry" />
        </mxCell>
        <mxCell id="QJ8cubjyemCX2tT7OLT0-50" value="1.3.1" style="rounded=0;whiteSpace=wrap;html=1;" parent="1" vertex="1">
          <mxGeometry x="520" y="20" width="80" height="20" as="geometry" />
        </mxCell>
        <mxCell id="QJ8cubjyemCX2tT7OLT0-51" value="1.3" style="rounded=0;whiteSpace=wrap;html=1;" parent="1" vertex="1">
          <mxGeometry x="520" y="740" width="80" height="20" as="geometry" />
        </mxCell>
        <mxCell id="QJ8cubjyemCX2tT7OLT0-52" value="1.3.3" style="rounded=0;whiteSpace=wrap;html=1;" parent="1" vertex="1">
          <mxGeometry x="520" y="580" width="80" height="20" as="geometry" />
        </mxCell>
        <mxCell id="QJ8cubjyemCX2tT7OLT0-53" value="1.3.2" style="rounded=0;whiteSpace=wrap;html=1;" parent="1" vertex="1">
          <mxGeometry x="520" y="420" width="80" height="20" as="geometry" />
        </mxCell>
        <mxCell id="Y-KdZH5Vc4EOkk4MUzBx-1" value="1.4 Stuff" style="rounded=0;whiteSpace=wrap;html=1;" vertex="1" parent="1">
          <mxGeometry x="760" y="440" width="160" height="80" as="geometry" />
        </mxCell>
        <mxCell id="Y-KdZH5Vc4EOkk4MUzBx-2" value="1.4" style="rounded=0;whiteSpace=wrap;html=1;" vertex="1" parent="1">
          <mxGeometry x="760" y="420" width="80" height="20" as="geometry" />
        </mxCell>
        <mxCell id="Y-KdZH5Vc4EOkk4MUzBx-5" value="Balancing" style="rounded=1;whiteSpace=wrap;html=1;" vertex="1" parent="1">
          <mxGeometry x="760" y="520" width="160" height="40" as="geometry" />
        </mxCell>
        <mxCell id="Y-KdZH5Vc4EOkk4MUzBx-6" value="Gun Addition" style="rounded=1;whiteSpace=wrap;html=1;" vertex="1" parent="1">
          <mxGeometry x="760" y="160" width="160" height="40" as="geometry" />
        </mxCell>
        <mxCell id="Y-KdZH5Vc4EOkk4MUzBx-7" value="1.4 Weapons" style="rounded=0;whiteSpace=wrap;html=1;" vertex="1" parent="1">
          <mxGeometry x="760" y="40" width="160" height="80" as="geometry" />
        </mxCell>
        <mxCell id="Y-KdZH5Vc4EOkk4MUzBx-8" value="Gun Rework" style="rounded=1;whiteSpace=wrap;html=1;" vertex="1" parent="1">
          <mxGeometry x="760" y="120" width="160" height="40" as="geometry" />
        </mxCell>
        <mxCell id="Y-KdZH5Vc4EOkk4MUzBx-9" value="1.4.1" style="rounded=0;whiteSpace=wrap;html=1;" vertex="1" parent="1">
          <mxGeometry x="760" y="20" width="80" height="20" as="geometry" />
        </mxCell>
        <mxCell id="Y-KdZH5Vc4EOkk4MUzBx-17" style="edgeStyle=orthogonalEdgeStyle;rounded=0;orthogonalLoop=1;jettySize=auto;html=1;exitX=1;exitY=0.75;exitDx=0;exitDy=0;entryX=0;entryY=0.25;entryDx=0;entryDy=0;" edge="1" parent="1" source="Y-KdZH5Vc4EOkk4MUzBx-11" target="Y-KdZH5Vc4EOkk4MUzBx-1">
          <mxGeometry relative="1" as="geometry" />
        </mxCell>
        <mxCell id="Y-KdZH5Vc4EOkk4MUzBx-11" value="1.3&lt;br&gt;Many Grenades&lt;br&gt;One Launcher" style="rounded=0;whiteSpace=wrap;html=1;" vertex="1" parent="1">
          <mxGeometry x="520" y="240" width="160" height="80" as="geometry" />
        </mxCell>
        <mxCell id="Y-KdZH5Vc4EOkk4MUzBx-12" value="1.3.4" style="rounded=0;whiteSpace=wrap;html=1;" vertex="1" parent="1">
          <mxGeometry x="520" y="220" width="80" height="20" as="geometry" />
        </mxCell>
        <mxCell id="Y-KdZH5Vc4EOkk4MUzBx-13" value="Sync" style="rounded=1;whiteSpace=wrap;html=1;" vertex="1" parent="1">
          <mxGeometry x="520" y="320" width="160" height="40" as="geometry" />
        </mxCell>
        <mxCell id="Y-KdZH5Vc4EOkk4MUzBx-14" value="ADS Interaction" style="rounded=1;whiteSpace=wrap;html=1;" vertex="1" parent="1">
          <mxGeometry x="520" y="360" width="160" height="40" as="geometry" />
        </mxCell>
        <mxCell id="Y-KdZH5Vc4EOkk4MUzBx-18" value="Release" style="rounded=0;whiteSpace=wrap;html=1;" vertex="1" parent="1">
          <mxGeometry x="120" y="220" width="80" height="20" as="geometry" />
        </mxCell>
        <mxCell id="Y-KdZH5Vc4EOkk4MUzBx-19" value="Release" style="rounded=0;whiteSpace=wrap;html=1;" vertex="1" parent="1">
          <mxGeometry x="360" y="20" width="80" height="20" as="geometry" />
        </mxCell>
        <mxCell id="Y-KdZH5Vc4EOkk4MUzBx-20" value="Release" style="rounded=0;whiteSpace=wrap;html=1;" vertex="1" parent="1">
          <mxGeometry x="360" y="220" width="80" height="20" as="geometry" />
        </mxCell>
        <mxCell id="Y-KdZH5Vc4EOkk4MUzBx-21" value="Preview" style="rounded=0;whiteSpace=wrap;html=1;" vertex="1" parent="1">
          <mxGeometry x="360" y="420" width="80" height="20" as="geometry" />
        </mxCell>
        <mxCell id="Y-KdZH5Vc4EOkk4MUzBx-22" value="Preview" style="rounded=0;whiteSpace=wrap;html=1;" vertex="1" parent="1">
          <mxGeometry x="360" y="580" width="80" height="20" as="geometry" />
        </mxCell>
        <mxCell id="Y-KdZH5Vc4EOkk4MUzBx-23" value="Preview" style="rounded=0;whiteSpace=wrap;html=1;" vertex="1" parent="1">
          <mxGeometry x="360" y="740" width="80" height="20" as="geometry" />
        </mxCell>
        <mxCell id="Y-KdZH5Vc4EOkk4MUzBx-24" value="Preview" style="rounded=0;whiteSpace=wrap;html=1;" vertex="1" parent="1">
          <mxGeometry x="600" y="580" width="80" height="20" as="geometry" />
        </mxCell>
        <mxCell id="Y-KdZH5Vc4EOkk4MUzBx-25" value="Preview" style="rounded=0;whiteSpace=wrap;html=1;" vertex="1" parent="1">
          <mxGeometry x="600" y="420" width="80" height="20" as="geometry" />
        </mxCell>
        <mxCell id="Y-KdZH5Vc4EOkk4MUzBx-26" value="Preview" style="rounded=0;whiteSpace=wrap;html=1;" vertex="1" parent="1">
          <mxGeometry x="600" y="220" width="80" height="20" as="geometry" />
        </mxCell>
        <mxCell id="Y-KdZH5Vc4EOkk4MUzBx-27" value="Release" style="rounded=0;whiteSpace=wrap;html=1;" vertex="1" parent="1">
          <mxGeometry x="600" y="20" width="80" height="20" as="geometry" />
        </mxCell>
        <mxCell id="Y-KdZH5Vc4EOkk4MUzBx-28" value="Release" style="rounded=0;whiteSpace=wrap;html=1;" vertex="1" parent="1">
          <mxGeometry x="840" y="20" width="80" height="20" as="geometry" />
        </mxCell>
        <mxCell id="Y-KdZH5Vc4EOkk4MUzBx-29" value="Release" style="rounded=0;whiteSpace=wrap;html=1;" vertex="1" parent="1">
          <mxGeometry x="840" y="420" width="80" height="20" as="geometry" />
        </mxCell>
        <mxCell id="Y-KdZH5Vc4EOkk4MUzBx-34" value="Static MG" style="rounded=1;whiteSpace=wrap;html=1;" vertex="1" parent="1">
          <mxGeometry x="760" y="200" width="100" height="20" as="geometry" />
        </mxCell>
        <mxCell id="Y-KdZH5Vc4EOkk4MUzBx-35" value="Preview" style="rounded=1;whiteSpace=wrap;html=1;" vertex="1" parent="1">
          <mxGeometry x="860" y="200" width="60" height="20" as="geometry" />
        </mxCell>
        <mxCell id="Y-KdZH5Vc4EOkk4MUzBx-36" value="Release" style="rounded=0;whiteSpace=wrap;html=1;" vertex="1" parent="1">
          <mxGeometry x="600" y="740" width="80" height="20" as="geometry" />
        </mxCell>
      </root>
    </mxGraphModel>
  </diagram>
</mxfile>
